<svg width="40" height="40" viewBox="0 0 40 40" fill="none" xmlns="http://www.w3.org/2000/svg">
<rect width="40" height="40" rx="20" fill="#37437D"/>
<path fill-rule="evenodd" clip-rule="evenodd" d="M20 16.875C18.2741 16.875 16.875 18.2741 16.875 20C16.875 21.7259 18.2741 23.125 20 23.125C21.7259 23.125 23.125 21.7259 23.125 20C23.125 18.2741 21.7259 16.875 20 16.875ZM15.625 20C15.625 17.5838 17.5837 15.625 20 15.625C22.4162 15.625 24.375 17.5838 24.375 20C24.375 22.4162 22.4162 24.375 20 24.375C17.5837 24.375 15.625 22.4162 15.625 20Z" fill="white"/>
<path fill-rule="evenodd" clip-rule="evenodd" d="M17.3236 11.663C17.4952 11.6076 17.6825 11.6291 17.8371 11.7219L19.6641 12.818C19.888 12.808 20.1123 12.808 20.3362 12.8181L22.1556 11.7293C22.309 11.6375 22.4943 11.6158 22.6648 11.6697C23.8587 12.0469 24.9564 12.679 25.8819 13.5224C26.0145 13.6433 26.0888 13.8154 26.0858 13.9949L26.0501 16.1185C26.1734 16.308 26.2866 16.5039 26.3892 16.7053L28.2412 17.735C28.3971 17.8217 28.5086 17.9709 28.5474 18.1451C28.8199 19.3654 28.8228 20.6306 28.5559 21.8522C28.5175 22.0278 28.4053 22.1784 28.2481 22.2655L26.3889 23.2952C26.2864 23.4965 26.1733 23.6922 26.0501 23.8815L26.0858 26.0051C26.0888 26.1846 26.0145 26.3567 25.8819 26.4776C24.9584 27.3191 23.8653 27.9531 22.6763 28.337C22.5047 28.3924 22.3175 28.3709 22.1628 28.2781L20.3358 27.182C20.1119 27.192 19.8876 27.192 19.6637 27.1819L17.8443 28.2707C17.6909 28.3625 17.5056 28.3842 17.3351 28.3303C16.1412 27.9531 15.0435 27.321 14.118 26.4776C13.9854 26.3567 13.9111 26.1845 13.9141 26.0051L13.9499 23.8863C13.8273 23.6948 13.7142 23.4975 13.6111 23.2949L11.7588 22.265C11.6028 22.1783 11.4914 22.0291 11.4525 21.8549C11.18 20.6346 11.1771 19.3694 11.4441 18.1478C11.4824 17.9722 11.5946 17.8216 11.7518 17.7345L13.611 16.7048C13.7135 16.5035 13.8266 16.3078 13.9499 16.1185L13.9141 13.9949C13.9111 13.8154 13.9854 13.6433 14.1181 13.5224C15.0416 12.6809 16.1346 12.0469 17.3236 11.663ZM15.1688 14.263L15.203 16.2942C15.2052 16.4258 15.1658 16.5547 15.0905 16.6626C14.9228 16.9026 14.7761 17.1565 14.6518 17.4216C14.5959 17.5407 14.5038 17.6392 14.3887 17.703L12.611 18.6876C12.4555 19.5557 12.4577 20.4448 12.6174 21.3122L14.3896 22.2975C14.5039 22.361 14.5953 22.4588 14.6511 22.577C14.7781 22.8462 14.9263 23.1048 15.0942 23.3506C15.1672 23.4574 15.2052 23.5843 15.203 23.7137L15.1688 25.7369C15.8444 26.3076 16.6169 26.7524 17.4496 27.0502L19.1868 26.0106C19.2969 25.9447 19.4245 25.9143 19.5524 25.9235C19.8504 25.9448 20.1495 25.9448 20.4476 25.9235C20.5757 25.9143 20.7035 25.9448 20.8137 26.0109L22.5566 27.0567C23.3865 26.7542 24.1566 26.3074 24.8311 25.737L24.7969 23.7058C24.7947 23.5742 24.8341 23.4453 24.9095 23.3374C25.0771 23.0974 25.2239 22.8435 25.3481 22.5784C25.404 22.4593 25.4961 22.3608 25.6112 22.297L27.3889 21.3124C27.5444 20.4443 27.5423 19.5552 27.3825 18.6878L25.6103 17.7025C25.4956 17.6387 25.4039 17.5404 25.3481 17.4216C25.2239 17.1565 25.0771 16.9026 24.9095 16.6626C24.8341 16.5547 24.7947 16.4258 24.7969 16.2942L24.8311 14.2631C24.1556 13.6924 23.383 13.2476 22.5503 12.9498L20.8131 13.9894C20.7031 14.0553 20.5755 14.0857 20.4476 14.0765C20.1495 14.0552 19.8504 14.0552 19.5524 14.0765C19.4242 14.0857 19.2964 14.0552 19.1862 13.9891L17.4434 12.9434C16.6134 13.2458 15.8433 13.6926 15.1688 14.263Z" fill="white"/>
</svg>
